<svg width="124" height="106" viewBox="0 0 124 106" fill="none" xmlns="http://www.w3.org/2000/svg">
<path d="M35.3639 37L40.7788 42.0882C40.7788 42.0882 43.5908 44.0835 45.1678 43.6246C48.0367 42.8065 50.6397 42.4274 53.4517 43.465C58.4106 45.2807 64.8516 48.6529 65.8206 48.9123C67.4736 49.3513 69.3355 51.4464 68.3096 52.903C67.2646 54.3596 64.7756 55.7165 62.5336 55.916C60.6336 56.0956 56.6057 52.3842 53.2237 53.2023C51.9507 53.5016 52.3117 56.8937 53.4137 58.051C54.5157 59.2084 68.1386 74.7522 68.1386 74.7522C69.9815 76.6877 68.6705 80 66.0676 80H40.3038C39.5248 80 38.7838 79.6807 38.2328 79.1021L30.5759 69.9434C28.1059 67.3494 24.838 63.638 24.838 59.9666V55.9759L21 52.065" stroke="#8BA6CC" stroke-width="3" stroke-linecap="round" stroke-linejoin="round"/>
<path d="M8 54V76H33" stroke="#8BA6CC" stroke-width="3" stroke-linecap="round" stroke-linejoin="round"/>
<path d="M72.3333 76H98V6H21" stroke="#8BA6CC" stroke-width="3" stroke-linecap="round" stroke-linejoin="round"/>
<path d="M6 42C6 42 18 53.84 18 54L38 34L6 2" stroke="#8BA6CC" stroke-width="3" stroke-linecap="round" stroke-linejoin="round"/>
<path d="M44 6V17H64V6" stroke="#8BA6CC" stroke-width="3" stroke-linecap="round" stroke-linejoin="round"/>
<path d="M47 80L44 76" stroke="#8BA6CC" stroke-width="3" stroke-linecap="round" stroke-linejoin="round"/>
<path d="M57 80L51 76" stroke="#8BA6CC" stroke-width="3" stroke-linecap="round" stroke-linejoin="round"/>
<path d="M64 80L60 76" stroke="#8BA6CC" stroke-width="3" stroke-linecap="round" stroke-linejoin="round"/>
</svg>
