<svg width="110" height="106" viewBox="0 0 110 106" fill="none" xmlns="http://www.w3.org/2000/svg">
<g clip-path="url(#clip0_8_123)">
<path d="M44.795 74.2121H1.39844V9H98.6199V74.2121" stroke="#8BA6CC" stroke-width="3" stroke-linecap="round" stroke-linejoin="round"/>
<path d="M21.7256 28.4087H79.9786" stroke="#8BA6CC" stroke-width="3" stroke-linecap="round" stroke-linejoin="round"/>
<path d="M21.7256 40.207H71.2428" stroke="#8BA6CC" stroke-width="3" stroke-linecap="round" stroke-linejoin="round"/>
<path d="M21.7256 52.0059H38.1035" stroke="#8BA6CC" stroke-width="3" stroke-linecap="round" stroke-linejoin="round"/>
<path d="M92.3599 69.8093L86.3184 74.4135L88.4801 81.6646L80.8633 81.8628L78.3244 88.9943L72.0452 84.7047L65.766 88.9943L63.2239 81.8628L55.6102 81.6646L57.7719 74.4135L51.7305 69.8093L57.7719 65.2018L55.6102 57.9508L63.227 57.7557L65.766 50.6211L72.0452 54.9107L78.3244 50.6211L80.8633 57.7557L88.4801 57.9508L86.3184 65.2018L92.3599 69.8093Z" stroke="#8BA6CC" stroke-width="3" stroke-linecap="round" stroke-linejoin="round"/>
<path d="M63.9499 84.4468L59.7627 102.612L72.0485 97.5609L84.328 102.612L80.1408 84.4468" stroke="#8BA6CC" stroke-width="3" stroke-linecap="round" stroke-linejoin="round"/>
<path d="M79.0971 71.4593C80.0167 67.5905 77.6035 63.7141 73.707 62.8009C69.8104 61.8878 65.9062 64.2839 64.9865 68.1526C64.0668 72.0214 66.48 75.8979 70.3766 76.8111C74.2731 77.7242 78.1774 75.3281 79.0971 71.4593Z" stroke="#8BA6CC" stroke-width="3" stroke-linecap="round" stroke-linejoin="round"/>
</g>
<defs>
<clipPath id="clip0_8_123">
<rect width="110" height="106" fill="white"/>
</clipPath>
</defs>
</svg>
