<svg width="85" height="106" viewBox="0 0 85 106" fill="none" xmlns="http://www.w3.org/2000/svg">
<path d="M19.0774 15.6191H1.64893V94.491H19.0774V15.6191Z" stroke="#8BA6CC" stroke-width="3" stroke-linecap="round" stroke-linejoin="round"/>
<path d="M9.26983 80.415H1.64893" stroke="#8BA6CC" stroke-width="3" stroke-linecap="round" stroke-linejoin="round"/>
<path d="M9.26983 63.4194H1.64893" stroke="#8BA6CC" stroke-width="3" stroke-linecap="round" stroke-linejoin="round"/>
<path d="M9.26983 46.4248H1.64893" stroke="#8BA6CC" stroke-width="3" stroke-linecap="round" stroke-linejoin="round"/>
<path d="M9.26983 29.4268H1.64893" stroke="#8BA6CC" stroke-width="3" stroke-linecap="round" stroke-linejoin="round"/>
<path d="M42.8311 83.554L36.7872 98.3584L31.248 83.4722L42.8311 83.554Z" stroke="#8BA6CC" stroke-width="3" stroke-linecap="round" stroke-linejoin="round"/>
<path d="M31.248 83.4722V21.5107L42.695 21.7112L42.8311 83.5541" stroke="#8BA6CC" stroke-width="3" stroke-linecap="round" stroke-linejoin="round"/>
<path d="M41.2798 21.6494L32.6382 21.5713L32.7109 13.6021C32.729 11.6147 34.366 10.0146 36.3626 10.0326L37.7664 10.0453C39.7631 10.0633 41.3706 11.6927 41.3524 13.6801L41.2798 21.6494Z" stroke="#8BA6CC" stroke-width="3" stroke-linecap="round" stroke-linejoin="round"/>
<path d="M67.2351 71.2482C69.1046 58.5523 67.2494 33.4515 64.8703 21.4452C64.4896 19.5261 63.0495 15.9112 61.4262 16.0017C59.803 15.9169 58.3458 19.5318 57.9707 21.4537C55.6174 33.4656 53.9197 59.3097 55.8149 72" stroke="#8BA6CC" stroke-width="3" stroke-linecap="round" stroke-linejoin="round"/>
<path d="M57.0169 96.9972C72.2873 94.5469 76.7195 70.9281 61.8543 71.0002C54.0302 71.0362 47.564 79.5984 55.9 87.257C58.8402 89.9568 57.0169 97 57.0169 97V96.9972Z" stroke="#8BA6CC" stroke-width="3" stroke-linecap="round" stroke-linejoin="round"/>
<path d="M55 63H68" stroke="#8BA6CC" stroke-width="3" stroke-linecap="round" stroke-linejoin="round"/>
</svg>
