<svg width="71" height="106" viewBox="0 0 71 106" fill="none" xmlns="http://www.w3.org/2000/svg">
<g clip-path="url(#clip0_7_84)">
<path d="M56.7175 13.1055L63.4106 13.1558C65.7748 13.1747 67.6956 15.8064 67.6831 17.41L67.4364 48.4001C67.4239 50.0036 65.4813 52.604 63.117 52.5882L31.0697 52.3398L37.0069 65.7659L13.4704 52.2046L5.83414 52.1449C3.46987 52.126 1.54909 49.4943 1.56158 47.8907L1.80832 16.9007C1.82081 15.2971 3.76345 12.6968 6.12772 12.7125L11.3372 12.7533" stroke="#8BA6CC" stroke-width="3" stroke-linecap="round" stroke-linejoin="round"/>
<path d="M69.4386 104.428V91.5019C69.4386 88.1689 66.3029 85.4648 62.5363 85.4648H58.2013L52.9762 93.2438L47.8916 85.4648H43.416C39.6463 85.4648 36.5918 88.1689 36.5918 91.5019V104.428" stroke="#8BA6CC" stroke-width="3" stroke-linecap="round" stroke-linejoin="round"/>
<path d="M60.5808 73.4365C61.5726 69.2062 58.9702 64.9674 54.7682 63.969C50.5662 62.9705 46.3559 65.5905 45.3641 69.8208C44.3723 74.0511 46.9747 78.2899 51.1767 79.2883C55.3787 80.2868 59.5891 77.6668 60.5808 73.4365Z" stroke="#8BA6CC" stroke-width="3" stroke-linecap="round" stroke-linejoin="round"/>
<path d="M41.6541 31.1568C48.219 27.2736 50.1992 21.8497 50.1992 17.0987C50.1992 8.52427 43.2937 1.57227 34.7767 1.57227H34.4644C25.9474 1.57227 19.042 8.52427 19.042 17.0987V17.6773C19.042 22.4283 22.0996 27.9748 27.9338 31.2291L27.915 38.5899C27.9057 41.3537 30.1294 43.6019 32.8778 43.6019H36.7756C39.5428 43.6019 41.7759 41.3254 41.7384 38.5396L41.6572 31.16L41.6541 31.1568Z" stroke="#8BA6CC" stroke-width="3" stroke-linecap="round" stroke-linejoin="round"/>
<path d="M27.9214 36.6245H41.7354" stroke="#8BA6CC" stroke-width="3" stroke-linecap="round" stroke-linejoin="round"/>
</g>
<defs>
<clipPath id="clip0_7_84">
<rect width="71" height="106" fill="white"/>
</clipPath>
</defs>
</svg>
